<svg width="67" height="67" viewBox="0 0 67 67" fill="none" xmlns="http://www.w3.org/2000/svg">
<g filter="url(#filter0_ii_4878_71)">
<rect width="67" height="67" rx="5.427" fill="url(#paint0_linear_4878_71)"/>
</g>
<g filter="url(#filter1_d_4878_71)">
<path d="M31.3039 38.5665C31.0913 38.9917 31.1976 39.5233 31.6229 39.7359C31.8355 39.9485 32.0481 40.0548 32.367 40.0548C32.5796 40.0548 32.6859 40.0548 32.8985 39.9485L39.7019 36.0152L34.1741 31.8694L31.3039 38.5665ZM41.2965 34.527L56.1789 16.8806C56.7105 16.2428 57.0294 15.3924 56.9231 14.4357C56.7105 12.9474 54.797 11.5655 54.797 11.5655C53.5214 10.8213 51.9268 10.6087 50.3323 12.2033L35.3435 30.0623L41.2965 34.527ZM17.3782 40.0548V12.4159C12.4882 12.4159 11 17.0932 11 18.7941V43.2439C12.7009 40.7989 17.3782 40.0548 17.3782 40.0548Z" fill="#1D1D1D"/>
</g>
<g filter="url(#filter2_d_4878_71)">
<path d="M56.7105 24.1089H52.7772L42.1469 36.759C41.9343 37.0779 41.6154 37.2905 41.2965 37.5031L33.8552 41.7552C32.6859 42.3931 31.1976 42.2868 30.1346 41.33C29.0716 40.3733 28.7527 38.9914 29.2842 37.7157L32.4733 30.2745C32.5796 30.0619 37.5758 24.1089 37.5758 24.1089H19.5043V42.1805H17.3782C13.9765 42.3931 11.2126 45.157 11 48.665C11 53.6612 14.0828 55.9999 17.9097 55.9999H56.7105C57.3483 55.9999 57.7735 55.5747 57.7735 54.9369V25.1719C57.7735 24.5341 57.3483 24.1089 56.7105 24.1089Z" fill="#1D1D1D"/>
</g>
<defs>
<filter id="filter0_ii_4878_71" x="0" y="-2.31552" width="67" height="71.631" filterUnits="userSpaceOnUse" color-interpolation-filters="sRGB">
<feFlood flood-opacity="0" result="BackgroundImageFix"/>
<feBlend mode="normal" in="SourceGraphic" in2="BackgroundImageFix" result="shape"/>
<feColorMatrix in="SourceAlpha" type="matrix" values="0 0 0 0 0 0 0 0 0 0 0 0 0 0 0 0 0 0 127 0" result="hardAlpha"/>
<feOffset dy="2.31552"/>
<feGaussianBlur stdDeviation="1.15776"/>
<feComposite in2="hardAlpha" operator="arithmetic" k2="-1" k3="1"/>
<feColorMatrix type="matrix" values="0 0 0 0 0.956667 0 0 0 0 0.956667 0 0 0 0 0.956667 0 0 0 1 0"/>
<feBlend mode="normal" in2="shape" result="effect1_innerShadow_4878_71"/>
<feColorMatrix in="SourceAlpha" type="matrix" values="0 0 0 0 0 0 0 0 0 0 0 0 0 0 0 0 0 0 127 0" result="hardAlpha"/>
<feOffset dy="-2.31552"/>
<feGaussianBlur stdDeviation="1.15776"/>
<feComposite in2="hardAlpha" operator="arithmetic" k2="-1" k3="1"/>
<feColorMatrix type="matrix" values="0 0 0 0 0.955 0 0 0 0 0.955 0 0 0 0 0.955 0 0 0 1 0"/>
<feBlend mode="normal" in2="effect1_innerShadow_4878_71" result="effect2_innerShadow_4878_71"/>
</filter>
<filter id="filter1_d_4878_71" x="10.5493" y="10.7296" width="46.8449" height="33.1451" filterUnits="userSpaceOnUse" color-interpolation-filters="sRGB">
<feFlood flood-opacity="0" result="BackgroundImageFix"/>
<feColorMatrix in="SourceAlpha" type="matrix" values="0 0 0 0 0 0 0 0 0 0 0 0 0 0 0 0 0 0 127 0" result="hardAlpha"/>
<feOffset dy="0.180284"/>
<feGaussianBlur stdDeviation="0.225355"/>
<feComposite in2="hardAlpha" operator="out"/>
<feColorMatrix type="matrix" values="0 0 0 0 0 0 0 0 0 0 0 0 0 0 0 0 0 0 0.3 0"/>
<feBlend mode="normal" in2="BackgroundImageFix" result="effect1_dropShadow_4878_71"/>
<feBlend mode="normal" in="SourceGraphic" in2="effect1_dropShadow_4878_71" result="shape"/>
</filter>
<filter id="filter2_d_4878_71" x="10.5493" y="23.8385" width="47.6749" height="32.7925" filterUnits="userSpaceOnUse" color-interpolation-filters="sRGB">
<feFlood flood-opacity="0" result="BackgroundImageFix"/>
<feColorMatrix in="SourceAlpha" type="matrix" values="0 0 0 0 0 0 0 0 0 0 0 0 0 0 0 0 0 0 127 0" result="hardAlpha"/>
<feOffset dy="0.180284"/>
<feGaussianBlur stdDeviation="0.225355"/>
<feComposite in2="hardAlpha" operator="out"/>
<feColorMatrix type="matrix" values="0 0 0 0 0 0 0 0 0 0 0 0 0 0 0 0 0 0 0.3 0"/>
<feBlend mode="normal" in2="BackgroundImageFix" result="effect1_dropShadow_4878_71"/>
<feBlend mode="normal" in="SourceGraphic" in2="effect1_dropShadow_4878_71" result="shape"/>
</filter>
<linearGradient id="paint0_linear_4878_71" x1="-8.79375" y1="2.52714e-07" x2="33.5" y2="67" gradientUnits="userSpaceOnUse">
<stop stop-color="#F7F6F6"/>
<stop offset="1" stop-color="white"/>
</linearGradient>
</defs>
</svg>
