<svg width="67" height="67" viewBox="0 0 67 67" fill="none" xmlns="http://www.w3.org/2000/svg">
<g filter="url(#filter0_ii_4878_81)">
<rect width="67" height="67" rx="5.427" fill="url(#paint0_linear_4878_81)"/>
</g>
<g filter="url(#filter1_d_4878_81)">
<path d="M24.1428 43.8572H34V57H24.1428V43.8572ZM14.7309 42.2144H15.3799L25.793 36.2015L20.1005 32.9141L14.7309 42.2144ZM28.5159 36.5258L27.8468 36.9126L27.8359 36.9185L18.6655 42.2144H31.8044L28.5159 36.5258ZM19.0814 31.3927L19.0859 31.3798C19.0884 31.3756 19.0926 31.3735 19.0951 31.3693L24.1428 22.6263V22.5H11V32.3572H18.5248L19.0814 31.3927ZM56.1784 43.8572H47.1428V57H56.1784C56.3962 56.9996 56.605 56.913 56.759 56.759C56.913 56.605 56.9996 56.3962 57 56.1784V44.6784C56.9993 44.225 56.6318 43.8579 56.1784 43.8572ZM35.6428 43.8572H45.5V57H35.6428V43.8572ZM11.8216 57H22.5V43.8572H11.8216C11.3682 43.8579 11.0007 44.225 11 44.6784V56.1784C11.0004 56.3962 11.087 56.605 11.241 56.759C11.395 56.913 11.6038 56.9996 11.8216 57ZM12.8337 42.2144L17.5761 34H11V42.3656C11.2631 42.2684 11.5411 42.2172 11.8216 42.2144H12.8337ZM45.0423 42.1519L38.4743 30.7759L29.9388 35.7046L33.7017 42.2144H44.9349L45.0423 42.1519ZM24.1428 11.8216C24.1421 11.3682 23.775 11.0007 23.3216 11H11.8216C11.6038 11.0004 11.395 11.087 11.241 11.241C11.087 11.395 11.0004 11.6038 11 11.8216V20.8572H24.1428V11.8216ZM54.2892 36.8126C54.3834 36.7593 54.4661 36.6879 54.5325 36.6024C54.5989 36.517 54.6477 36.4192 54.676 36.3148C54.7045 36.2105 54.712 36.1016 54.6981 35.9944C54.6841 35.8872 54.6491 35.7838 54.5949 35.6902L48.8467 25.7364C48.7364 25.5465 48.5555 25.408 48.3434 25.3511C48.2393 25.323 48.1306 25.316 48.0237 25.3305C47.9169 25.345 47.814 25.3808 47.7212 25.4357L39.8967 29.9539L46.4652 41.3307L54.2892 36.8126ZM42.2603 19.1515L32.3077 13.4033C32.2142 13.3498 32.1111 13.3152 32.0043 13.3015C31.8974 13.2879 31.7889 13.2954 31.685 13.3238C31.5811 13.3521 31.4838 13.4006 31.3986 13.4666C31.3135 13.5326 31.2422 13.6148 31.1889 13.7083L26.67 21.5353L38.0461 28.1033L42.5626 20.282C42.618 20.1889 42.6542 20.0856 42.6691 19.9782C42.684 19.8709 42.6772 19.7616 42.6493 19.6569C42.6208 19.5512 42.5718 19.4522 42.5051 19.3655C42.4383 19.2788 42.3552 19.2061 42.2603 19.1515ZM20.9222 31.4914L27.4358 35.2525L37.1611 29.6366L37.2242 29.5257L25.8481 22.9584L20.9222 31.4914Z" fill="#1D1D1D"/>
</g>
<defs>
<filter id="filter0_ii_4878_81" x="0" y="-2.31552" width="67" height="71.631" filterUnits="userSpaceOnUse" color-interpolation-filters="sRGB">
<feFlood flood-opacity="0" result="BackgroundImageFix"/>
<feBlend mode="normal" in="SourceGraphic" in2="BackgroundImageFix" result="shape"/>
<feColorMatrix in="SourceAlpha" type="matrix" values="0 0 0 0 0 0 0 0 0 0 0 0 0 0 0 0 0 0 127 0" result="hardAlpha"/>
<feOffset dy="2.31552"/>
<feGaussianBlur stdDeviation="1.15776"/>
<feComposite in2="hardAlpha" operator="arithmetic" k2="-1" k3="1"/>
<feColorMatrix type="matrix" values="0 0 0 0 0.956667 0 0 0 0 0.956667 0 0 0 0 0.956667 0 0 0 1 0"/>
<feBlend mode="normal" in2="shape" result="effect1_innerShadow_4878_81"/>
<feColorMatrix in="SourceAlpha" type="matrix" values="0 0 0 0 0 0 0 0 0 0 0 0 0 0 0 0 0 0 127 0" result="hardAlpha"/>
<feOffset dy="-2.31552"/>
<feGaussianBlur stdDeviation="1.15776"/>
<feComposite in2="hardAlpha" operator="arithmetic" k2="-1" k3="1"/>
<feColorMatrix type="matrix" values="0 0 0 0 0.955 0 0 0 0 0.955 0 0 0 0 0.955 0 0 0 1 0"/>
<feBlend mode="normal" in2="effect1_innerShadow_4878_81" result="effect2_innerShadow_4878_81"/>
</filter>
<filter id="filter1_d_4878_81" x="6.4775" y="8.2865" width="55.045" height="55.045" filterUnits="userSpaceOnUse" color-interpolation-filters="sRGB">
<feFlood flood-opacity="0" result="BackgroundImageFix"/>
<feColorMatrix in="SourceAlpha" type="matrix" values="0 0 0 0 0 0 0 0 0 0 0 0 0 0 0 0 0 0 127 0" result="hardAlpha"/>
<feOffset dy="1.809"/>
<feGaussianBlur stdDeviation="2.26125"/>
<feComposite in2="hardAlpha" operator="out"/>
<feColorMatrix type="matrix" values="0 0 0 0 0 0 0 0 0 0 0 0 0 0 0 0 0 0 0.3 0"/>
<feBlend mode="normal" in2="BackgroundImageFix" result="effect1_dropShadow_4878_81"/>
<feBlend mode="normal" in="SourceGraphic" in2="effect1_dropShadow_4878_81" result="shape"/>
</filter>
<linearGradient id="paint0_linear_4878_81" x1="-8.79375" y1="2.52714e-07" x2="33.5" y2="67" gradientUnits="userSpaceOnUse">
<stop stop-color="#F7F6F6"/>
<stop offset="1" stop-color="white"/>
</linearGradient>
</defs>
</svg>
