<svg width="67" height="67" viewBox="0 0 67 67" fill="none" xmlns="http://www.w3.org/2000/svg">
<g filter="url(#filter0_ii_4878_50)">
<rect width="67" height="67" rx="5.427" fill="url(#paint0_linear_4878_50)"/>
</g>
<g filter="url(#filter1_d_4878_50)">
<path d="M24.6839 22.1621H33.4724C33.8913 22.1621 34.2828 21.9613 34.5339 21.626C36.4542 19.0623 37.4277 16.2265 37.4277 13.1973V12.3184C37.4277 11.5903 36.8375 11 36.1094 11C33.6678 11 30.4831 12.5813 29.0781 13.3507C27.6732 12.5813 24.4885 11 22.0469 11C21.3188 11 20.7285 11.5903 20.7285 12.3184V13.1973C20.7285 16.2265 21.7021 19.0623 23.6223 21.626C23.8734 21.9613 24.2651 22.1621 24.6839 22.1621ZM30.0987 41.5394V45.272C30.7722 44.9085 31.1723 44.2373 31.2793 43.6011C31.3557 43.1466 31.3869 42.0557 30.0987 41.5394ZM27.2388 36.7805C27.1464 37.271 27.2653 37.7279 27.5416 37.9446C27.6497 38.0294 27.7713 38.1124 27.9014 38.1938V35.7124C27.5176 35.9808 27.3086 36.4104 27.2388 36.7805Z" fill="#1D1D1D"/>
</g>
<g filter="url(#filter2_d_4878_50)">
<path d="M36.2852 44.2519V37.711C36.2852 35.884 37.5993 34.3456 39.4099 34.0529C40.3462 33.9016 41.1608 33.3175 41.6089 32.4842C39.7203 29.8721 37.4968 27.4397 35.2924 25.1938C35.1697 25.0687 35.0233 24.9694 34.8618 24.9016C34.7002 24.8338 34.5268 24.7988 34.3516 24.7988H23.8047C23.6295 24.7988 23.456 24.8338 23.2945 24.9016C23.133 24.9694 22.9865 25.0687 22.8638 25.1937C17.2444 30.9189 11.5 37.8553 11.5 45.8926L11.5001 45.9871C11.5124 51.5083 16.0784 56 21.6787 56H36.4775C38.0433 56 39.5281 55.6486 40.8553 55.022C37.998 52.2624 36.2852 48.4089 36.2852 44.2519ZM33.4461 43.9654C33.2784 44.9628 32.7766 45.8883 32.0332 46.5714C31.4772 47.0822 30.8206 47.4318 30.0987 47.6086V48.4414C30.0987 49.0482 29.6069 49.54 29.0001 49.54C28.3933 49.54 27.9014 49.0482 27.9014 48.4414V47.7112C26.9811 47.6352 26.2237 47.3923 25.1464 46.6876C24.6387 46.3555 24.4963 45.6746 24.8284 45.1669C25.1606 44.659 25.8414 44.5167 26.3492 44.8489C26.9722 45.2563 27.3698 45.4303 27.9014 45.5008V40.6745C27.1726 40.3418 26.63 40.0222 26.1856 39.6735C25.2571 38.9453 24.8332 37.6808 25.0795 36.3736C25.3482 34.948 26.3402 33.8139 27.6684 33.4138C27.7456 33.3905 27.8233 33.3688 27.9014 33.3485V32.6211C27.9014 32.0143 28.3933 31.5225 29.0001 31.5225C29.6069 31.5225 30.0987 32.0143 30.0987 32.6211V33.2267C31.2009 33.411 31.9791 33.9515 32.3545 34.3822C32.7531 34.8396 32.7055 35.5336 32.248 35.9322C31.7927 36.3288 31.1031 36.2835 30.7037 35.8322C30.6776 35.8055 30.4802 35.6142 30.0987 35.4827V39.2006C30.3063 39.2778 30.5137 39.3526 30.7174 39.4246C32.7198 40.1323 33.7909 41.9147 33.4461 43.9654Z" fill="#1D1D1D"/>
</g>
<g filter="url(#filter3_d_4878_50)">
<path d="M55.5912 36.6561C54.6997 36.5117 53.8554 36.1572 53.1281 35.6219C52.4008 35.0866 51.8114 34.3858 51.4087 33.5775C51.2965 33.3524 51.0632 33.2134 50.8116 33.2134H44.6102C44.3587 33.2134 44.1254 33.3524 44.0132 33.5775C43.6104 34.3858 43.021 35.0866 42.2937 35.6219C41.5664 36.1573 40.7221 36.5117 39.8307 36.6561C39.3092 36.7403 38.9219 37.183 38.9219 37.7112V44.2521C38.9219 49.5518 42.3046 54.2409 47.2933 55.9314C47.5642 56.0231 47.8578 56.0231 48.1287 55.9314C53.1173 54.2409 56.5 49.5518 56.5 44.2521V37.7112C56.5 37.183 56.1127 36.7403 55.5912 36.6561ZM52.372 43.0853L47.4002 48.0571C47.1428 48.3146 46.8054 48.4433 46.4681 48.4433C46.1308 48.4433 45.7933 48.3147 45.5359 48.0571L43.05 45.5712C42.5351 45.0564 42.5351 44.2217 43.05 43.7068C43.5648 43.192 44.3996 43.192 44.9144 43.7068L46.4682 45.2605L50.5078 41.2209C51.0226 40.7061 51.8574 40.7061 52.3722 41.2209C52.8869 41.7359 52.8869 42.5706 52.372 43.0853Z" fill="#1D1D1D"/>
</g>
<defs>
<filter id="filter0_ii_4878_50" x="0" y="-2.31552" width="67" height="71.631" filterUnits="userSpaceOnUse" color-interpolation-filters="sRGB">
<feFlood flood-opacity="0" result="BackgroundImageFix"/>
<feBlend mode="normal" in="SourceGraphic" in2="BackgroundImageFix" result="shape"/>
<feColorMatrix in="SourceAlpha" type="matrix" values="0 0 0 0 0 0 0 0 0 0 0 0 0 0 0 0 0 0 127 0" result="hardAlpha"/>
<feOffset dy="2.31552"/>
<feGaussianBlur stdDeviation="1.15776"/>
<feComposite in2="hardAlpha" operator="arithmetic" k2="-1" k3="1"/>
<feColorMatrix type="matrix" values="0 0 0 0 0.956667 0 0 0 0 0.956667 0 0 0 0 0.956667 0 0 0 1 0"/>
<feBlend mode="normal" in2="shape" result="effect1_innerShadow_4878_50"/>
<feColorMatrix in="SourceAlpha" type="matrix" values="0 0 0 0 0 0 0 0 0 0 0 0 0 0 0 0 0 0 127 0" result="hardAlpha"/>
<feOffset dy="-2.31552"/>
<feGaussianBlur stdDeviation="1.15776"/>
<feComposite in2="hardAlpha" operator="arithmetic" k2="-1" k3="1"/>
<feColorMatrix type="matrix" values="0 0 0 0 0.955 0 0 0 0 0.955 0 0 0 0 0.955 0 0 0 1 0"/>
<feBlend mode="normal" in2="effect1_innerShadow_4878_50" result="effect2_innerShadow_4878_50"/>
</filter>
<filter id="filter1_d_4878_50" x="16.206" y="8.2865" width="25.7442" height="43.317" filterUnits="userSpaceOnUse" color-interpolation-filters="sRGB">
<feFlood flood-opacity="0" result="BackgroundImageFix"/>
<feColorMatrix in="SourceAlpha" type="matrix" values="0 0 0 0 0 0 0 0 0 0 0 0 0 0 0 0 0 0 127 0" result="hardAlpha"/>
<feOffset dy="1.809"/>
<feGaussianBlur stdDeviation="2.26125"/>
<feComposite in2="hardAlpha" operator="out"/>
<feColorMatrix type="matrix" values="0 0 0 0 0 0 0 0 0 0 0 0 0 0 0 0 0 0 0.3 0"/>
<feBlend mode="normal" in2="BackgroundImageFix" result="effect1_dropShadow_4878_50"/>
<feBlend mode="normal" in="SourceGraphic" in2="effect1_dropShadow_4878_50" result="shape"/>
</filter>
<filter id="filter2_d_4878_50" x="6.9775" y="22.0853" width="39.1539" height="40.2462" filterUnits="userSpaceOnUse" color-interpolation-filters="sRGB">
<feFlood flood-opacity="0" result="BackgroundImageFix"/>
<feColorMatrix in="SourceAlpha" type="matrix" values="0 0 0 0 0 0 0 0 0 0 0 0 0 0 0 0 0 0 127 0" result="hardAlpha"/>
<feOffset dy="1.809"/>
<feGaussianBlur stdDeviation="2.26125"/>
<feComposite in2="hardAlpha" operator="out"/>
<feColorMatrix type="matrix" values="0 0 0 0 0 0 0 0 0 0 0 0 0 0 0 0 0 0 0.3 0"/>
<feBlend mode="normal" in2="BackgroundImageFix" result="effect1_dropShadow_4878_50"/>
<feBlend mode="normal" in="SourceGraphic" in2="effect1_dropShadow_4878_50" result="shape"/>
</filter>
<filter id="filter3_d_4878_50" x="34.3994" y="30.4999" width="26.6231" height="31.8316" filterUnits="userSpaceOnUse" color-interpolation-filters="sRGB">
<feFlood flood-opacity="0" result="BackgroundImageFix"/>
<feColorMatrix in="SourceAlpha" type="matrix" values="0 0 0 0 0 0 0 0 0 0 0 0 0 0 0 0 0 0 127 0" result="hardAlpha"/>
<feOffset dy="1.809"/>
<feGaussianBlur stdDeviation="2.26125"/>
<feComposite in2="hardAlpha" operator="out"/>
<feColorMatrix type="matrix" values="0 0 0 0 0 0 0 0 0 0 0 0 0 0 0 0 0 0 0.3 0"/>
<feBlend mode="normal" in2="BackgroundImageFix" result="effect1_dropShadow_4878_50"/>
<feBlend mode="normal" in="SourceGraphic" in2="effect1_dropShadow_4878_50" result="shape"/>
</filter>
<linearGradient id="paint0_linear_4878_50" x1="-8.79375" y1="2.52714e-07" x2="33.5" y2="67" gradientUnits="userSpaceOnUse">
<stop stop-color="#F7F6F6"/>
<stop offset="1" stop-color="white"/>
</linearGradient>
</defs>
</svg>
