<svg width="67" height="67" viewBox="0 0 67 67" fill="none" xmlns="http://www.w3.org/2000/svg">
<g filter="url(#filter0_ii_4878_60)">
<rect width="67" height="67" rx="5.427" fill="url(#paint0_linear_4878_60)"/>
</g>
<g filter="url(#filter1_d_4878_60)">
<path d="M33.9862 16.047C23.3576 6.75072 9.84349 14.9187 9.62189 25.9916C9.56542 28.8136 10.38 31.5624 12.0015 34.0966H22.5116L24.381 30.9809C24.9238 30.0763 26.2374 30.0471 26.811 30.949L30.7551 37.1469L36.5045 25.0096C37.0059 23.9505 38.5002 23.9169 39.0532 24.9439L43.9816 34.0966H55.9709C64.8523 20.2158 47.2997 4.40261 33.9862 16.047Z" fill="#1D1D1D"/>
</g>
<g filter="url(#filter2_d_4878_60)">
<path d="M41.8706 36.2023L37.877 28.7856L32.2298 40.7076C31.7493 41.7219 30.3362 41.81 29.7337 40.863L25.6416 34.4327L24.5452 36.26C24.4183 36.4715 24.2388 36.6466 24.0241 36.7681C23.8095 36.8896 23.567 36.9535 23.3203 36.9535H14.2612C14.5452 37.2507 13.0317 35.7403 32.9787 55.5839C33.5358 56.1382 34.4364 56.1383 34.9936 55.5839C54.6336 36.0456 53.4276 37.2501 53.711 36.9535H43.1284C42.8704 36.9535 42.6173 36.8837 42.3958 36.7515C42.1744 36.6192 41.9929 36.4294 41.8706 36.2023Z" fill="#1D1D1D"/>
</g>
<defs>
<filter id="filter0_ii_4878_60" x="0" y="-2.31552" width="67" height="71.631" filterUnits="userSpaceOnUse" color-interpolation-filters="sRGB">
<feFlood flood-opacity="0" result="BackgroundImageFix"/>
<feBlend mode="normal" in="SourceGraphic" in2="BackgroundImageFix" result="shape"/>
<feColorMatrix in="SourceAlpha" type="matrix" values="0 0 0 0 0 0 0 0 0 0 0 0 0 0 0 0 0 0 127 0" result="hardAlpha"/>
<feOffset dy="2.31552"/>
<feGaussianBlur stdDeviation="1.15776"/>
<feComposite in2="hardAlpha" operator="arithmetic" k2="-1" k3="1"/>
<feColorMatrix type="matrix" values="0 0 0 0 0.956667 0 0 0 0 0.956667 0 0 0 0 0.956667 0 0 0 1 0"/>
<feBlend mode="normal" in2="shape" result="effect1_innerShadow_4878_60"/>
<feColorMatrix in="SourceAlpha" type="matrix" values="0 0 0 0 0 0 0 0 0 0 0 0 0 0 0 0 0 0 127 0" result="hardAlpha"/>
<feOffset dy="-2.31552"/>
<feGaussianBlur stdDeviation="1.15776"/>
<feComposite in2="hardAlpha" operator="arithmetic" k2="-1" k3="1"/>
<feColorMatrix type="matrix" values="0 0 0 0 0.955 0 0 0 0 0.955 0 0 0 0 0.955 0 0 0 1 0"/>
<feBlend mode="normal" in2="effect1_innerShadow_4878_60" result="effect2_innerShadow_4878_60"/>
</filter>
<filter id="filter1_d_4878_60" x="5.09664" y="9.28699" width="57.807" height="34.1915" filterUnits="userSpaceOnUse" color-interpolation-filters="sRGB">
<feFlood flood-opacity="0" result="BackgroundImageFix"/>
<feColorMatrix in="SourceAlpha" type="matrix" values="0 0 0 0 0 0 0 0 0 0 0 0 0 0 0 0 0 0 127 0" result="hardAlpha"/>
<feOffset dy="1.809"/>
<feGaussianBlur stdDeviation="2.26125"/>
<feComposite in2="hardAlpha" operator="out"/>
<feColorMatrix type="matrix" values="0 0 0 0 0 0 0 0 0 0 0 0 0 0 0 0 0 0 0.3 0"/>
<feBlend mode="normal" in2="BackgroundImageFix" result="effect1_dropShadow_4878_60"/>
<feBlend mode="normal" in="SourceGraphic" in2="effect1_dropShadow_4878_60" result="shape"/>
</filter>
<filter id="filter2_d_4878_60" x="9.73873" y="26.0721" width="48.4947" height="36.2589" filterUnits="userSpaceOnUse" color-interpolation-filters="sRGB">
<feFlood flood-opacity="0" result="BackgroundImageFix"/>
<feColorMatrix in="SourceAlpha" type="matrix" values="0 0 0 0 0 0 0 0 0 0 0 0 0 0 0 0 0 0 127 0" result="hardAlpha"/>
<feOffset dy="1.809"/>
<feGaussianBlur stdDeviation="2.26125"/>
<feComposite in2="hardAlpha" operator="out"/>
<feColorMatrix type="matrix" values="0 0 0 0 0 0 0 0 0 0 0 0 0 0 0 0 0 0 0.3 0"/>
<feBlend mode="normal" in2="BackgroundImageFix" result="effect1_dropShadow_4878_60"/>
<feBlend mode="normal" in="SourceGraphic" in2="effect1_dropShadow_4878_60" result="shape"/>
</filter>
<linearGradient id="paint0_linear_4878_60" x1="-8.79375" y1="2.52714e-07" x2="33.5" y2="67" gradientUnits="userSpaceOnUse">
<stop stop-color="#F7F6F6"/>
<stop offset="1" stop-color="white"/>
</linearGradient>
</defs>
</svg>
