<svg width="67" height="67" viewBox="0 0 67 67" fill="none" xmlns="http://www.w3.org/2000/svg">
<g filter="url(#filter0_ii_4878_16)">
<rect width="67" height="67" rx="5.427" fill="url(#paint0_linear_4878_16)"/>
</g>
<g filter="url(#filter1_d_4878_16)">
<path d="M52.9615 14.1078C48.8663 10.0125 42.208 9.99896 38.1127 14.1078L27.8338 24.3867L42.6962 39.2491L52.9615 28.9566C57.0568 24.8478 57.0568 18.2031 52.9615 14.1078ZM42.425 20.1829L37.7466 24.7935L37.733 24.8071C37.1906 25.3359 36.3363 25.3224 35.821 24.78C35.2921 24.2375 35.3057 23.3832 35.8481 22.8679L40.5401 18.2573L40.5536 18.2438C41.0961 17.7149 41.9504 17.7285 42.4657 18.2709C42.981 18.7998 42.9674 19.6676 42.425 20.1829ZM25.9082 26.2987L15.5615 36.659C11.4798 40.7678 11.4798 47.399 15.5615 51.5078C19.6975 55.5895 26.3557 55.5895 30.4917 51.5078L40.7842 41.1747L25.9082 26.2987Z" fill="#1D1D1D"/>
</g>
<defs>
<filter id="filter0_ii_4878_16" x="0" y="-2.31552" width="67" height="71.631" filterUnits="userSpaceOnUse" color-interpolation-filters="sRGB">
<feFlood flood-opacity="0" result="BackgroundImageFix"/>
<feBlend mode="normal" in="SourceGraphic" in2="BackgroundImageFix" result="shape"/>
<feColorMatrix in="SourceAlpha" type="matrix" values="0 0 0 0 0 0 0 0 0 0 0 0 0 0 0 0 0 0 127 0" result="hardAlpha"/>
<feOffset dy="2.31552"/>
<feGaussianBlur stdDeviation="1.15776"/>
<feComposite in2="hardAlpha" operator="arithmetic" k2="-1" k3="1"/>
<feColorMatrix type="matrix" values="0 0 0 0 0.956667 0 0 0 0 0.956667 0 0 0 0 0.956667 0 0 0 1 0"/>
<feBlend mode="normal" in2="shape" result="effect1_innerShadow_4878_16"/>
<feColorMatrix in="SourceAlpha" type="matrix" values="0 0 0 0 0 0 0 0 0 0 0 0 0 0 0 0 0 0 127 0" result="hardAlpha"/>
<feOffset dy="-2.31552"/>
<feGaussianBlur stdDeviation="1.15776"/>
<feComposite in2="hardAlpha" operator="arithmetic" k2="-1" k3="1"/>
<feColorMatrix type="matrix" values="0 0 0 0 0.955 0 0 0 0 0.955 0 0 0 0 0.955 0 0 0 1 0"/>
<feBlend mode="normal" in2="effect1_innerShadow_4878_16" result="effect2_innerShadow_4878_16"/>
</filter>
<filter id="filter1_d_4878_16" x="7.97774" y="8.31775" width="52.5777" height="52.5831" filterUnits="userSpaceOnUse" color-interpolation-filters="sRGB">
<feFlood flood-opacity="0" result="BackgroundImageFix"/>
<feColorMatrix in="SourceAlpha" type="matrix" values="0 0 0 0 0 0 0 0 0 0 0 0 0 0 0 0 0 0 127 0" result="hardAlpha"/>
<feOffset dy="1.809"/>
<feGaussianBlur stdDeviation="2.26125"/>
<feComposite in2="hardAlpha" operator="out"/>
<feColorMatrix type="matrix" values="0 0 0 0 0 0 0 0 0 0 0 0 0 0 0 0 0 0 0.3 0"/>
<feBlend mode="normal" in2="BackgroundImageFix" result="effect1_dropShadow_4878_16"/>
<feBlend mode="normal" in="SourceGraphic" in2="effect1_dropShadow_4878_16" result="shape"/>
</filter>
<linearGradient id="paint0_linear_4878_16" x1="-8.79375" y1="2.52714e-07" x2="33.5" y2="67" gradientUnits="userSpaceOnUse">
<stop stop-color="#F7F6F6"/>
<stop offset="1" stop-color="white"/>
</linearGradient>
</defs>
</svg>
