<svg width="67" height="67" viewBox="0 0 67 67" fill="none" xmlns="http://www.w3.org/2000/svg">
<g filter="url(#filter0_ii_4878_91)">
<rect width="67" height="67" rx="5.427" fill="url(#paint0_linear_4878_91)"/>
</g>
<g filter="url(#filter1_d_4878_91)">
<path d="M54.2534 40.9082C51.8872 38.5402 48.6038 37.537 44.3872 38.6671L29.3511 23.6157L29.5499 22.8643C30.4159 19.615 29.4801 16.1223 27.1086 13.7508C24.694 11.3343 21.2612 10.4476 18.0147 11.3394C17.7872 11.4019 17.5801 11.5229 17.4141 11.6906C17.2481 11.8582 17.129 12.0664 17.0688 12.2945C17.0087 12.5226 17.0095 12.7624 17.0711 12.99C17.1328 13.2176 17.253 13.4251 17.42 13.5917L21.0404 17.2121C22.0988 18.2732 22.0885 19.9725 21.043 21.0208C20.0057 22.0608 18.2622 22.0592 17.2291 21.0234L13.608 17.402C13.4411 17.235 13.2333 17.1149 13.0054 17.0535C12.7775 16.9922 12.5375 16.9918 12.3094 17.0524C12.0814 17.1131 11.8733 17.2325 11.7059 17.3989C11.5386 17.5653 11.4179 17.7727 11.356 18.0003C10.4772 21.2112 11.3417 24.6652 13.7679 27.0914C16.1331 29.4584 19.4123 30.4652 23.6315 29.3327L38.6687 44.384C37.5466 48.5994 38.5145 51.8509 40.9126 54.249C43.3303 56.6685 46.7646 57.5486 50.004 56.6597C50.2316 56.5973 50.4387 56.4762 50.6048 56.3086C50.7708 56.141 50.89 55.9327 50.9503 55.7046C51.0104 55.4765 51.0096 55.2367 50.948 55.009C50.8863 54.7814 50.766 54.5739 50.5991 54.4073L46.9795 50.7876C45.921 49.7266 45.9313 48.0271 46.9768 46.979C48.027 45.9342 49.7667 45.9508 50.7907 46.9776L54.4121 50.5981C54.579 50.7649 54.7868 50.885 55.0147 50.9464C55.2426 51.0077 55.4826 51.0081 55.7106 50.9475C55.9386 50.8868 56.1467 50.7673 56.314 50.601C56.4813 50.4347 56.602 50.2273 56.664 49.9997C57.5427 46.7894 56.6784 43.3345 54.2534 40.9082Z" fill="#1D1D1D"/>
</g>
<g filter="url(#filter2_d_4878_91)">
<path d="M25.4245 34.9509L12.5776 47.7995C10.4751 49.9019 10.4751 53.3208 12.5776 55.4232C14.68 57.5256 18.0989 57.5256 20.2012 55.4232L33.0479 42.575L25.4245 34.9509ZM18.9352 51.2408C18.4087 51.7673 17.5561 51.7673 17.0296 51.2408C16.5032 50.7144 16.5032 49.8616 17.0296 49.3353L25.2036 41.1597C25.73 40.6333 26.5829 40.6333 27.1092 41.1597C27.6355 41.6861 27.6355 42.5389 27.1092 43.0653L18.9352 51.2408ZM56.6043 13.718L54.2811 11.3948C54.0686 11.1823 53.7912 11.0469 53.4929 11.0101C53.1946 10.9734 52.8927 11.0373 52.6349 11.1919L45.4881 15.4795C44.7361 15.9306 44.6085 16.9681 45.2284 17.5881L45.7973 18.1568L36.7249 27.1921L40.5374 31.0046L49.6098 21.9693L50.4111 22.7708C51.0311 23.3906 52.0686 23.263 52.5197 22.5111L56.8073 15.3643C56.9618 15.1065 57.0257 14.8045 56.989 14.5062C56.9522 14.208 56.8168 13.9306 56.6043 13.718Z" fill="#1D1D1D"/>
</g>
<defs>
<filter id="filter0_ii_4878_91" x="0" y="-2.31552" width="67" height="71.631" filterUnits="userSpaceOnUse" color-interpolation-filters="sRGB">
<feFlood flood-opacity="0" result="BackgroundImageFix"/>
<feBlend mode="normal" in="SourceGraphic" in2="BackgroundImageFix" result="shape"/>
<feColorMatrix in="SourceAlpha" type="matrix" values="0 0 0 0 0 0 0 0 0 0 0 0 0 0 0 0 0 0 127 0" result="hardAlpha"/>
<feOffset dy="2.31552"/>
<feGaussianBlur stdDeviation="1.15776"/>
<feComposite in2="hardAlpha" operator="arithmetic" k2="-1" k3="1"/>
<feColorMatrix type="matrix" values="0 0 0 0 0.956667 0 0 0 0 0.956667 0 0 0 0 0.956667 0 0 0 1 0"/>
<feBlend mode="normal" in2="shape" result="effect1_innerShadow_4878_91"/>
<feColorMatrix in="SourceAlpha" type="matrix" values="0 0 0 0 0 0 0 0 0 0 0 0 0 0 0 0 0 0 127 0" result="hardAlpha"/>
<feOffset dy="-2.31552"/>
<feGaussianBlur stdDeviation="1.15776"/>
<feComposite in2="hardAlpha" operator="arithmetic" k2="-1" k3="1"/>
<feColorMatrix type="matrix" values="0 0 0 0 0.955 0 0 0 0 0.955 0 0 0 0 0.955 0 0 0 1 0"/>
<feBlend mode="normal" in2="effect1_innerShadow_4878_91" result="effect2_innerShadow_4878_91"/>
</filter>
<filter id="filter1_d_4878_91" x="6.49825" y="8.2865" width="55.0235" height="55.0435" filterUnits="userSpaceOnUse" color-interpolation-filters="sRGB">
<feFlood flood-opacity="0" result="BackgroundImageFix"/>
<feColorMatrix in="SourceAlpha" type="matrix" values="0 0 0 0 0 0 0 0 0 0 0 0 0 0 0 0 0 0 127 0" result="hardAlpha"/>
<feOffset dy="1.809"/>
<feGaussianBlur stdDeviation="2.26125"/>
<feComposite in2="hardAlpha" operator="out"/>
<feColorMatrix type="matrix" values="0 0 0 0 0 0 0 0 0 0 0 0 0 0 0 0 0 0 0.3 0"/>
<feBlend mode="normal" in2="BackgroundImageFix" result="effect1_dropShadow_4878_91"/>
<feBlend mode="normal" in="SourceGraphic" in2="effect1_dropShadow_4878_91" result="shape"/>
</filter>
<filter id="filter2_d_4878_91" x="6.47823" y="8.2865" width="55.0433" height="55.045" filterUnits="userSpaceOnUse" color-interpolation-filters="sRGB">
<feFlood flood-opacity="0" result="BackgroundImageFix"/>
<feColorMatrix in="SourceAlpha" type="matrix" values="0 0 0 0 0 0 0 0 0 0 0 0 0 0 0 0 0 0 127 0" result="hardAlpha"/>
<feOffset dy="1.809"/>
<feGaussianBlur stdDeviation="2.26125"/>
<feComposite in2="hardAlpha" operator="out"/>
<feColorMatrix type="matrix" values="0 0 0 0 0 0 0 0 0 0 0 0 0 0 0 0 0 0 0.3 0"/>
<feBlend mode="normal" in2="BackgroundImageFix" result="effect1_dropShadow_4878_91"/>
<feBlend mode="normal" in="SourceGraphic" in2="effect1_dropShadow_4878_91" result="shape"/>
</filter>
<linearGradient id="paint0_linear_4878_91" x1="-8.79375" y1="2.52714e-07" x2="33.5" y2="67" gradientUnits="userSpaceOnUse">
<stop stop-color="#F7F6F6"/>
<stop offset="1" stop-color="white"/>
</linearGradient>
</defs>
</svg>
