<svg width="37" height="37" viewBox="0 0 37 37" fill="none" xmlns="http://www.w3.org/2000/svg">
<g filter="url(#filter0_ii_5317_2841)">
<rect y="6.10352e-05" width="37.0002" height="37.0002" rx="3.33002" fill="url(#paint0_linear_5317_2841)"/>
</g>
<g clip-path="url(#clip0_5317_2841)">
<g filter="url(#filter1_d_5317_2841)">
<path d="M33.8815 12.0511V21.9717C33.8815 22.8974 33.1871 23.6503 32.3329 23.6503H21.6179L18.9179 28.3246C18.8702 28.4076 18.8015 28.4764 18.7186 28.5243C18.6358 28.5722 18.5419 28.5974 18.4462 28.5974C18.3505 28.5974 18.2566 28.5722 18.1738 28.5243C18.091 28.4764 18.0222 28.4076 17.9745 28.3246L15.2766 23.6503H4.56234C3.70812 23.6503 3.01306 22.8974 3.01306 21.9717V12.0511C3.01306 11.1262 3.70812 10.3733 4.56234 10.3733H9.98206L9.54677 11.4622H4.56234C4.31274 11.4622 4.10189 11.7322 4.10189 12.0511V21.9717C4.10189 22.2914 4.31274 22.5607 4.56234 22.5607H15.5915C15.6871 22.5608 15.781 22.586 15.8637 22.6339C15.9465 22.6818 16.0152 22.7506 16.0628 22.8334L18.4466 26.963L20.8317 22.8334C20.8795 22.7506 20.9483 22.6817 21.0312 22.6339C21.114 22.586 21.208 22.5608 21.3037 22.5607H32.3329C32.5819 22.5607 32.7926 22.2914 32.7926 21.9717V12.0511C32.7926 11.7322 32.5818 11.4622 32.3329 11.4622H15.986V10.3733H32.3329C33.1871 10.3733 33.8815 11.1262 33.8815 12.0511ZM6.12924 12.7176H10.2173L11.4802 9.55714C11.6802 9.06138 12.0937 8.03302 13.1696 8.03302C14.1224 8.03302 14.8977 8.80696 14.8977 9.75915V12.7176H16.2443C17.6685 12.7176 18.8274 13.8758 18.8274 15.2999V18.7834C18.8274 20.2083 17.6678 21.3678 16.243 21.3678H6.12924C5.82861 21.3678 5.58449 21.1236 5.58449 20.823V13.2624C5.58448 13.1908 5.59855 13.12 5.62592 13.0539C5.65329 12.9878 5.69342 12.9277 5.74401 12.8771C5.79459 12.8265 5.85465 12.7864 5.92075 12.759C5.98685 12.7317 6.0577 12.7176 6.12924 12.7176ZM9.38833 20.2783H16.2431C17.0673 20.2783 17.7379 19.6077 17.7379 18.7834V15.2999C17.7379 14.4764 17.068 13.8064 16.2444 13.8064H14.3538C14.2822 13.8065 14.2114 13.7925 14.1453 13.7652C14.0792 13.7379 14.0192 13.6979 13.9686 13.6473C13.918 13.5968 13.8778 13.5368 13.8505 13.4707C13.8231 13.4047 13.809 13.3339 13.809 13.2624V9.75921C13.809 9.40762 13.522 9.12198 13.1697 9.12198C12.9493 9.12198 12.7759 9.25599 12.4916 9.9626L11.092 13.4644C11.0517 13.5654 10.9819 13.652 10.8918 13.713C10.8018 13.7739 10.6955 13.8065 10.5867 13.8064H9.3884L9.38833 20.2783ZM21.1723 20.2071H25.9689C26.2697 20.2071 26.5135 19.9633 26.5135 19.6625C26.5135 19.3617 26.2697 19.1179 25.9689 19.1179H21.1723C20.8715 19.1179 20.6277 19.3617 20.6277 19.6625C20.6277 19.9633 20.8715 20.2071 21.1723 20.2071ZM21.1723 14.9076H30.7653C31.0661 14.9076 31.3099 14.6638 31.3099 14.3629C31.3099 14.0621 31.0661 13.8183 30.7653 13.8183H21.1723C21.0279 13.8183 20.8893 13.8757 20.7872 13.9778C20.6851 14.08 20.6277 14.2185 20.6277 14.3629C20.6277 14.5074 20.6851 14.6459 20.7872 14.748C20.8893 14.8502 21.0279 14.9076 21.1723 14.9076ZM21.1723 17.5564H30.7653C31.0661 17.5564 31.3099 17.3126 31.3099 17.0118C31.3099 16.711 31.0661 16.4672 30.7653 16.4672H21.1723C21.0279 16.4672 20.8893 16.5246 20.7872 16.6267C20.6851 16.7288 20.6277 16.8674 20.6277 17.0118C20.6277 17.1562 20.6851 17.2948 20.7872 17.3969C20.8893 17.499 21.0279 17.5564 21.1723 17.5564Z" fill="#1D1D1D"/>
</g>
</g>
<defs>
<filter id="filter0_ii_5317_2841" x="0" y="-1.42075" width="37.0002" height="39.8419" filterUnits="userSpaceOnUse" color-interpolation-filters="sRGB">
<feFlood flood-opacity="0" result="BackgroundImageFix"/>
<feBlend mode="normal" in="SourceGraphic" in2="BackgroundImageFix" result="shape"/>
<feColorMatrix in="SourceAlpha" type="matrix" values="0 0 0 0 0 0 0 0 0 0 0 0 0 0 0 0 0 0 127 0" result="hardAlpha"/>
<feOffset dy="1.42081"/>
<feGaussianBlur stdDeviation="0.710405"/>
<feComposite in2="hardAlpha" operator="arithmetic" k2="-1" k3="1"/>
<feColorMatrix type="matrix" values="0 0 0 0 0.956667 0 0 0 0 0.956667 0 0 0 0 0.956667 0 0 0 1 0"/>
<feBlend mode="normal" in2="shape" result="effect1_innerShadow_5317_2841"/>
<feColorMatrix in="SourceAlpha" type="matrix" values="0 0 0 0 0 0 0 0 0 0 0 0 0 0 0 0 0 0 127 0" result="hardAlpha"/>
<feOffset dy="-1.42081"/>
<feGaussianBlur stdDeviation="0.710405"/>
<feComposite in2="hardAlpha" operator="arithmetic" k2="-1" k3="1"/>
<feColorMatrix type="matrix" values="0 0 0 0 0.955 0 0 0 0 0.955 0 0 0 0 0.955 0 0 0 1 0"/>
<feBlend mode="normal" in2="effect1_innerShadow_5317_2841" result="effect2_innerShadow_5317_2841"/>
</filter>
<filter id="filter1_d_5317_2841" x="0.0130615" y="6.57405" width="36.8684" height="26.5645" filterUnits="userSpaceOnUse" color-interpolation-filters="sRGB">
<feFlood flood-opacity="0" result="BackgroundImageFix"/>
<feColorMatrix in="SourceAlpha" type="matrix" values="0 0 0 0 0 0 0 0 0 0 0 0 0 0 0 0 0 0 127 0" result="hardAlpha"/>
<feOffset dy="1.54103"/>
<feGaussianBlur stdDeviation="1.5"/>
<feComposite in2="hardAlpha" operator="out"/>
<feColorMatrix type="matrix" values="0 0 0 0 0 0 0 0 0 0 0 0 0 0 0 0 0 0 0.15 0"/>
<feBlend mode="normal" in2="BackgroundImageFix" result="effect1_dropShadow_5317_2841"/>
<feBlend mode="normal" in="SourceGraphic" in2="effect1_dropShadow_5317_2841" result="shape"/>
</filter>
<linearGradient id="paint0_linear_5317_2841" x1="-4.85628" y1="6.11747e-05" x2="18.5001" y2="37.0003" gradientUnits="userSpaceOnUse">
<stop stop-color="#F7F6F6"/>
<stop offset="1" stop-color="white"/>
</linearGradient>
<clipPath id="clip0_5317_2841">
<rect width="30.8944" height="20.6623" fill="white" transform="translate(3 8)"/>
</clipPath>
</defs>
</svg>
