<svg width="80" height="80" viewBox="0 0 80 80" fill="none" xmlns="http://www.w3.org/2000/svg">
<g filter="url(#filter0_ii_4623_48)">
<rect width="80" height="80" rx="6" fill="url(#paint0_linear_4623_48)"/>
</g>
<g filter="url(#filter1_d_4623_48)">
<path fill-rule="evenodd" clip-rule="evenodd" d="M53 34.5C53 43.0604 46.0604 50 37.5 50C28.9396 50 22 43.0604 22 34.5C22 25.9396 28.9396 19 37.5 19C46.0604 19 53 25.9396 53 34.5ZM46.7174 53.9295C43.9239 55.2571 40.7987 56 37.5 56C25.6259 56 16 46.3741 16 34.5C16 22.6259 25.6259 13 37.5 13C49.3741 13 59 22.6259 59 34.5C59 40.1734 56.8025 45.3335 53.2123 49.1757L62.9486 59.7971C64.4414 61.4256 64.3314 63.9559 62.7029 65.4486C61.0744 66.9414 58.5442 66.8314 57.0514 65.2029L46.7174 53.9295Z" fill="#1D1D1D"/>
</g>
<defs>
<filter id="filter0_ii_4623_48" x="0" y="-2.56" width="80" height="85.12" filterUnits="userSpaceOnUse" color-interpolation-filters="sRGB">
<feFlood flood-opacity="0" result="BackgroundImageFix"/>
<feBlend mode="normal" in="SourceGraphic" in2="BackgroundImageFix" result="shape"/>
<feColorMatrix in="SourceAlpha" type="matrix" values="0 0 0 0 0 0 0 0 0 0 0 0 0 0 0 0 0 0 127 0" result="hardAlpha"/>
<feOffset dy="2.56"/>
<feGaussianBlur stdDeviation="1.28"/>
<feComposite in2="hardAlpha" operator="arithmetic" k2="-1" k3="1"/>
<feColorMatrix type="matrix" values="0 0 0 0 0.956667 0 0 0 0 0.956667 0 0 0 0 0.956667 0 0 0 1 0"/>
<feBlend mode="normal" in2="shape" result="effect1_innerShadow_4623_48"/>
<feColorMatrix in="SourceAlpha" type="matrix" values="0 0 0 0 0 0 0 0 0 0 0 0 0 0 0 0 0 0 127 0" result="hardAlpha"/>
<feOffset dy="-2.56"/>
<feGaussianBlur stdDeviation="1.28"/>
<feComposite in2="hardAlpha" operator="arithmetic" k2="-1" k3="1"/>
<feColorMatrix type="matrix" values="0 0 0 0 0.955 0 0 0 0 0.955 0 0 0 0 0.955 0 0 0 1 0"/>
<feBlend mode="normal" in2="effect1_innerShadow_4623_48" result="effect2_innerShadow_4623_48"/>
</filter>
<filter id="filter1_d_4623_48" x="11" y="10" width="58" height="63.5" filterUnits="userSpaceOnUse" color-interpolation-filters="sRGB">
<feFlood flood-opacity="0" result="BackgroundImageFix"/>
<feColorMatrix in="SourceAlpha" type="matrix" values="0 0 0 0 0 0 0 0 0 0 0 0 0 0 0 0 0 0 127 0" result="hardAlpha"/>
<feOffset dy="2"/>
<feGaussianBlur stdDeviation="2.5"/>
<feComposite in2="hardAlpha" operator="out"/>
<feColorMatrix type="matrix" values="0 0 0 0 0 0 0 0 0 0 0 0 0 0 0 0 0 0 0.3 0"/>
<feBlend mode="normal" in2="BackgroundImageFix" result="effect1_dropShadow_4623_48"/>
<feBlend mode="normal" in="SourceGraphic" in2="effect1_dropShadow_4623_48" result="shape"/>
</filter>
<linearGradient id="paint0_linear_4623_48" x1="-10.5" y1="3.01749e-07" x2="40" y2="80" gradientUnits="userSpaceOnUse">
<stop stop-color="#F7F6F6"/>
<stop offset="1" stop-color="white"/>
</linearGradient>
</defs>
</svg>
