<svg width="162" height="26" viewBox="0 0 162 26" fill="none" xmlns="http://www.w3.org/2000/svg">
<path d="M12.7895 0.912109L17.1369 8.32421L25.5789 10.1396L19.8237 16.5359L20.6938 25.07L12.7895 21.6111L4.88514 25.07L5.75526 16.5359L0 10.1396L8.44209 8.32421L12.7895 0.912109Z" fill="#FFCB45"/>
<path d="M81.0002 0.912109L85.3475 8.32421L93.7896 10.1396L88.0344 16.5359L88.9045 25.07L81.0002 21.6111L73.0958 25.07L73.966 16.5359L68.2107 10.1396L76.6528 8.32421L81.0002 0.912109Z" fill="#FFCB45"/>
<path d="M46.8949 0.912109L51.2423 8.32421L59.6844 10.1396L53.9292 16.5359L54.7993 25.07L46.8949 21.6111L38.9906 25.07L39.8607 16.5359L34.1055 10.1396L42.5476 8.32421L46.8949 0.912109Z" fill="#FFCB45"/>
<path d="M115.105 0.912109L119.452 8.32421L127.894 10.1396L122.139 16.5359L123.009 25.07L115.105 21.6111L107.201 25.07L108.071 16.5359L102.315 10.1396L110.758 8.32421L115.105 0.912109Z" fill="#FFCB45"/>
<path d="M149.21 0.912109L153.558 8.32421L162 10.1396L156.245 16.5359L157.115 25.07L149.21 21.6111L141.306 25.07L142.176 16.5359L136.421 10.1396L144.863 8.32421L149.21 0.912109Z" fill="#FFCB45"/>
</svg>
