<svg width="37" height="38" viewBox="0 0 37 38" fill="none" xmlns="http://www.w3.org/2000/svg">
<g filter="url(#filter0_ii_5317_2849)">
<rect width="37.0002" height="37.0002" rx="3.33002" fill="url(#paint0_linear_5317_2849)"/>
</g>
<g filter="url(#filter1_d_5317_2849)">
<path fill-rule="evenodd" clip-rule="evenodd" d="M7.53644 21.3277V23.2701C7.53654 23.3429 7.56157 23.4135 7.60735 23.4701C7.65313 23.5267 7.71692 23.5659 7.78809 23.5812L10.1362 24.0811C10.2904 24.5641 10.485 25.0332 10.7178 25.4835L9.41079 27.4986C9.37109 27.5597 9.35359 27.6325 9.36123 27.7049C9.36886 27.7774 9.40118 27.8449 9.45274 27.8964L12.1997 30.6433C12.2511 30.6948 12.3186 30.7271 12.391 30.7346C12.4633 30.7422 12.5361 30.7247 12.597 30.6849L14.6117 29.3783C15.0623 29.6112 15.5317 29.8058 16.0149 29.9599L16.5148 32.308C16.53 32.3792 16.5692 32.4431 16.6259 32.4889C16.6825 32.5347 16.7531 32.5597 16.826 32.5597H20.7105C20.7833 32.5596 20.8539 32.5346 20.9105 32.4888C20.9671 32.443 21.0063 32.3792 21.0216 32.308L21.5214 29.9599C22.0047 29.8058 22.4741 29.6113 22.9246 29.3783L24.9393 30.6849C25.0004 30.7247 25.0732 30.7422 25.1456 30.7347C25.218 30.7271 25.2856 30.6948 25.3371 30.6433L28.084 27.8964C28.1355 27.8449 28.1677 27.7773 28.1752 27.7049C28.1828 27.6325 28.1653 27.5597 28.1257 27.4986L26.8182 25.4835C27.0513 25.0333 27.246 24.5641 27.4002 24.0811L29.7484 23.5812C29.8195 23.5659 29.8833 23.5267 29.9291 23.4701C29.9749 23.4135 29.9999 23.3429 30 23.2701V21.3277C29.9999 21.2434 29.9664 21.1627 29.9068 21.1032C29.8472 21.0436 29.7664 21.0102 29.6822 21.0102H24.4928C24.4086 21.0102 24.3278 21.0436 24.2682 21.1032C24.2086 21.1627 24.1751 21.2434 24.175 21.3277C24.175 22.7616 23.6054 24.1368 22.5914 25.1508C21.5775 26.1647 20.2023 26.7344 18.7683 26.7344C17.3344 26.7344 15.9592 26.1647 14.9452 25.1508C13.9313 24.1368 13.3616 22.7616 13.3616 21.3277C13.3615 21.2434 13.328 21.1627 13.2684 21.1032C13.2088 21.0436 13.1281 21.0102 13.0438 21.0102H7.8543C7.81258 21.0101 7.77126 21.0183 7.7327 21.0343C7.69414 21.0502 7.65911 21.0736 7.62959 21.1031C7.60008 21.1325 7.57666 21.1676 7.56069 21.2061C7.54471 21.2446 7.53644 21.2859 7.53644 21.3277ZM17.2036 7.97427C17.1476 7.94527 17.0842 7.93367 17.0216 7.94095C16.959 7.94824 16.8999 7.97408 16.8521 8.01517L13.2105 11.1175C12.9434 10.9238 12.6145 10.8348 12.2862 10.8673C11.9578 10.8998 11.6528 11.0515 11.4288 11.2938C11.2048 11.5361 11.0774 11.8521 11.0707 12.1819C11.064 12.5118 11.1785 12.8327 11.3925 13.0839C11.6065 13.335 11.9051 13.499 12.2319 13.5448C12.5587 13.5906 12.8909 13.5149 13.1656 13.3323C13.4404 13.1496 13.6386 12.8725 13.7229 12.5535C13.8071 12.2344 13.7714 11.8956 13.6226 11.6011L17.1014 8.63727L20.7174 10.5067C20.7746 10.5362 20.8394 10.5477 20.9033 10.5396C20.9672 10.5315 21.0271 10.5042 21.0751 10.4613L25.5105 6.50146V7.42665C25.5105 7.51093 25.544 7.59177 25.6036 7.65137C25.6632 7.71097 25.7441 7.74445 25.8284 7.74445C25.9126 7.74445 25.9935 7.71097 26.0531 7.65137C26.1127 7.59177 26.1462 7.51093 26.1462 7.42665V5.75817C26.1462 5.67389 26.1127 5.59305 26.0531 5.53345C25.9935 5.47385 25.9126 5.44037 25.8284 5.44037H24.1599C24.0756 5.44037 23.9948 5.47385 23.9352 5.53345C23.8756 5.59305 23.8421 5.67389 23.8421 5.75817C23.8421 5.84246 23.8756 5.92329 23.9352 5.98289C23.9948 6.04249 24.0756 6.07598 24.1599 6.07598H25.0321L20.8149 9.84143L17.2036 7.97427ZM10.722 13.9538C10.722 13.912 10.7302 13.8707 10.7462 13.8322C10.7622 13.7937 10.7856 13.7586 10.8151 13.7292C10.8446 13.6997 10.8797 13.6763 10.9182 13.6604C10.9568 13.6444 10.9981 13.6362 11.0398 13.6363H13.8015C13.8858 13.6363 13.9665 13.6697 14.0261 13.7292C14.0857 13.7888 14.1192 13.8695 14.1193 13.9538V19.6356H14.9535V10.8711C14.9535 10.7868 14.987 10.706 15.0466 10.6464C15.1062 10.5868 15.187 10.5533 15.2713 10.5533H18.033C18.1173 10.5533 18.1982 10.5868 18.2578 10.6464C18.3174 10.706 18.3508 10.7868 18.3508 10.8711V19.6356H19.1853V12.4124C19.1854 12.3282 19.2189 12.2474 19.2785 12.1879C19.3381 12.1284 19.4189 12.0949 19.5031 12.0949H22.2648C22.349 12.0949 22.4298 12.1284 22.4894 12.1879C22.549 12.2474 22.5825 12.3282 22.5826 12.4124V19.6356H23.4166V9.32982C23.4167 9.24558 23.4502 9.16483 23.5098 9.1053C23.5694 9.04577 23.6502 9.01233 23.7344 9.01233H26.4962C26.5379 9.01226 26.5792 9.02042 26.6178 9.03635C26.6564 9.05228 26.6914 9.07565 26.7209 9.10514C26.7504 9.13464 26.7739 9.16966 26.7898 9.20821C26.8058 9.24677 26.814 9.28809 26.814 9.32982V19.6356H27.9528C28.0371 19.6356 28.1179 19.6691 28.1775 19.7287C28.2371 19.7883 28.2706 19.8691 28.2706 19.9534C28.2706 20.0377 28.2371 20.1186 28.1775 20.1782C28.1179 20.2378 28.0371 20.2712 27.9528 20.2712H9.58447C9.50019 20.2712 9.41935 20.2378 9.35975 20.1782C9.30015 20.1186 9.26667 20.0377 9.26667 19.9534C9.26667 19.8691 9.30015 19.7883 9.35975 19.7287C9.41935 19.6691 9.50019 19.6356 9.58447 19.6356H10.722V13.9538Z" fill="#1D1D1D"/>
</g>
<defs>
<filter id="filter0_ii_5317_2849" x="0" y="-1.42081" width="37.0002" height="39.8419" filterUnits="userSpaceOnUse" color-interpolation-filters="sRGB">
<feFlood flood-opacity="0" result="BackgroundImageFix"/>
<feBlend mode="normal" in="SourceGraphic" in2="BackgroundImageFix" result="shape"/>
<feColorMatrix in="SourceAlpha" type="matrix" values="0 0 0 0 0 0 0 0 0 0 0 0 0 0 0 0 0 0 127 0" result="hardAlpha"/>
<feOffset dy="1.42081"/>
<feGaussianBlur stdDeviation="0.710405"/>
<feComposite in2="hardAlpha" operator="arithmetic" k2="-1" k3="1"/>
<feColorMatrix type="matrix" values="0 0 0 0 0.956667 0 0 0 0 0.956667 0 0 0 0 0.956667 0 0 0 1 0"/>
<feBlend mode="normal" in2="shape" result="effect1_innerShadow_5317_2849"/>
<feColorMatrix in="SourceAlpha" type="matrix" values="0 0 0 0 0 0 0 0 0 0 0 0 0 0 0 0 0 0 127 0" result="hardAlpha"/>
<feOffset dy="-1.42081"/>
<feGaussianBlur stdDeviation="0.710405"/>
<feComposite in2="hardAlpha" operator="arithmetic" k2="-1" k3="1"/>
<feColorMatrix type="matrix" values="0 0 0 0 0.955 0 0 0 0 0.955 0 0 0 0 0.955 0 0 0 1 0"/>
<feBlend mode="normal" in2="effect1_innerShadow_5317_2849" result="effect2_innerShadow_5317_2849"/>
</filter>
<filter id="filter1_d_5317_2849" x="4.40729" y="3.91859" width="28.7219" height="33.3776" filterUnits="userSpaceOnUse" color-interpolation-filters="sRGB">
<feFlood flood-opacity="0" result="BackgroundImageFix"/>
<feColorMatrix in="SourceAlpha" type="matrix" values="0 0 0 0 0 0 0 0 0 0 0 0 0 0 0 0 0 0 127 0" result="hardAlpha"/>
<feOffset dy="1.60737"/>
<feGaussianBlur stdDeviation="1.56457"/>
<feComposite in2="hardAlpha" operator="out"/>
<feColorMatrix type="matrix" values="0 0 0 0 0 0 0 0 0 0 0 0 0 0 0 0 0 0 0.15 0"/>
<feBlend mode="normal" in2="BackgroundImageFix" result="effect1_dropShadow_5317_2849"/>
<feBlend mode="normal" in="SourceGraphic" in2="effect1_dropShadow_5317_2849" result="shape"/>
</filter>
<linearGradient id="paint0_linear_5317_2849" x1="-4.85628" y1="1.3956e-07" x2="18.5001" y2="37.0002" gradientUnits="userSpaceOnUse">
<stop stop-color="#F7F6F6"/>
<stop offset="1" stop-color="white"/>
</linearGradient>
</defs>
</svg>
