<svg width="37" height="38" viewBox="0 0 37 38" fill="none" xmlns="http://www.w3.org/2000/svg">
<g filter="url(#filter0_ii_5332_4296)">
<rect width="37.0002" height="37.0002" rx="3.33002" fill="url(#paint0_linear_5332_4296)"/>
</g>
<g filter="url(#filter1_d_5332_4296)">
<path fill-rule="evenodd" clip-rule="evenodd" d="M13.6977 26.9648L12.8239 28.4778C12.6025 28.8619 12.1096 28.9938 11.7264 28.7725C11.3441 28.552 11.2114 28.0565 11.4321 27.6744L12.3057 26.1611C12.5274 25.7771 13.02 25.6452 13.404 25.8668C13.7872 26.0887 13.9197 26.5809 13.6977 26.9649V26.9648ZM15.5096 27.0826C15.3879 27.0123 15.2497 26.9753 15.1092 26.9753C14.8313 26.9753 14.5606 27.1195 14.4121 27.3769L12.9954 29.8305C12.7737 30.214 12.9066 30.707 13.2897 30.9286C13.6731 31.1502 14.1658 31.0182 14.3872 30.6343L15.8039 28.1807C16.0253 27.7967 15.8933 27.3046 15.5097 27.0827L15.5096 27.0826ZM9.89755 17.0726C9.92999 17.0453 9.92555 16.9983 9.88822 16.9778L8.38628 16.1423C8.27759 16.0824 8.16008 16.0918 8.06242 16.1681C5.84131 17.9201 4.60194 21.0153 5.11533 23.5273C5.13574 23.629 5.19208 23.6977 5.2876 23.7381L6.46602 24.2385C6.50549 24.255 6.54603 24.2291 6.54603 24.186C6.57499 21.3538 7.73378 18.8943 9.89755 17.0725V17.0726ZM17.989 28.7872C17.9331 28.5786 17.8005 28.4055 17.6157 28.2982C17.4939 28.2281 17.3558 28.1912 17.2153 28.1912C16.9374 28.1912 16.6667 28.3354 16.5177 28.5928L15.3368 30.6386C15.1323 31.0193 15.2663 31.498 15.6432 31.7153C15.828 31.822 16.0443 31.8501 16.2526 31.7942C16.4609 31.7382 16.634 31.6057 16.7413 31.4209L17.9101 29.3966C18.0168 29.2115 18.0449 28.9955 17.989 28.7872ZM26.5614 25.4967L22.793 23.3204C22.0571 22.8949 21.3706 22.4951 20.4916 22.4951C19.706 22.4997 18.9953 22.847 18.3077 23.1833C17.2229 23.7132 15.9935 24.3138 14.6664 23.2151C14.2895 22.9023 14.0741 22.4349 14.1034 21.9933C14.1306 21.5884 14.3548 21.2344 14.7354 20.9971L17.8325 19.0668C16.9285 18.6173 16.0963 18.6892 15.1568 18.771C13.9163 18.878 12.51 19.0006 10.6936 17.9789L10.3394 17.7793C8.44042 19.4161 7.4431 21.5135 7.374 24.0171L10.3703 25.5623C10.4127 25.5839 10.451 25.6128 10.4833 25.6477L11.2031 26.422L11.5921 25.7487C12.0408 24.9716 13.0381 24.7043 13.816 25.153C14.2344 25.3945 14.5047 25.7949 14.5955 26.2345C15.0215 26.0934 15.5034 26.1275 15.9216 26.3689C16.3402 26.6103 16.6108 27.0108 16.7017 27.4503C17.1278 27.3093 17.6097 27.3433 18.0278 27.5848C18.4036 27.8016 18.672 28.1529 18.785 28.5735C18.7933 28.6045 18.8006 28.6354 18.8071 28.6664C19.2332 28.5252 19.7154 28.5592 20.1339 28.8006C20.4405 28.977 20.6807 29.2492 20.8176 29.5753L22.634 30.6235C22.9869 30.828 23.445 30.7055 23.6487 30.3522C23.8482 30.0056 23.7347 29.5561 23.3934 29.3474L21.1695 28.063C21.0749 28.0084 21.0058 27.9184 20.9775 27.8129C20.9491 27.7074 20.9638 27.5949 21.0182 27.5002C21.073 27.4055 21.1632 27.3364 21.2688 27.3081C21.3745 27.2798 21.4871 27.2945 21.5819 27.3492L24.1609 28.8383C24.5511 29.0639 25.0523 28.9297 25.2777 28.5392C25.5 28.1545 25.369 27.6542 24.9873 27.4274L22.8043 26.1674C22.6076 26.0533 22.5398 25.8012 22.6535 25.604C22.7676 25.4067 23.0197 25.3395 23.2164 25.4533L25.763 26.9234C26.1516 27.1477 26.6552 27.0131 26.8795 26.6243C27.1286 26.1935 26.9346 25.7691 26.5614 25.4967V25.4967ZM29.8979 16.1681C29.8422 16.1252 29.7812 16.1029 29.7182 16.1029C29.6697 16.1029 29.6209 16.1165 29.5738 16.1423L28.0713 16.9778C28.0506 16.9895 28.0441 16.9992 28.0418 17.0233C28.0395 17.0468 28.044 17.0573 28.0625 17.0726C30.2263 18.8944 31.3851 21.3539 31.414 24.1861C31.414 24.2292 31.4546 24.2551 31.494 24.2386L32.6721 23.7382C32.7675 23.6979 32.8236 23.6287 32.8447 23.5274C33.3581 21.0154 32.1187 17.9201 29.8979 16.1681ZM27.6115 17.7717L26.8741 18.1821C25.6577 18.8587 24.3017 18.981 22.9528 18.5365C21.7585 18.1432 20.5063 18.371 19.1224 19.2335L15.1715 21.6968C15.0154 21.7944 14.9354 21.9091 14.926 22.0487C14.9136 22.2277 15.0185 22.4361 15.1919 22.5799C16.0672 23.3048 16.773 23.0156 17.9455 22.4426C18.6802 22.0833 19.5135 21.6766 20.4861 21.6706C21.5484 21.6706 22.3165 22.0926 23.2058 22.6069L26.9924 24.7937C27.184 24.9011 27.4366 25.164 27.5548 25.3523L30.5841 23.951C30.4993 21.4726 29.4997 19.3952 27.6115 17.7717ZM21.5481 30.9488L20.9062 30.5782C20.8698 30.7349 20.8104 30.8853 20.7299 31.0245L20.2937 31.7802L20.638 31.9738C21.2411 32.3217 21.6345 32.1327 21.8028 31.8413C21.9558 31.5759 21.9393 31.1867 21.5482 30.9488H21.5481ZM19.7218 29.5143C19.3389 29.2954 18.8471 29.4224 18.6237 29.8087L17.7499 31.3225C17.5287 31.7056 17.6613 32.1991 18.0442 32.4203C18.4282 32.6417 18.9203 32.5097 19.142 32.1263L20.0155 30.6124C20.2374 30.2302 20.1032 29.7358 19.7218 29.5143ZM13.0823 10.8977C13.0823 7.64055 15.7229 5 18.98 5C22.2372 5 24.8778 7.64055 24.8778 10.8977C24.8778 14.1549 22.2373 16.7955 18.98 16.7955C15.7228 16.7955 13.0823 14.155 13.0823 10.8977ZM15.5234 10.9253L16.9016 13.3124C17.0395 13.5513 17.2595 13.6983 17.5331 13.7343C17.8066 13.7703 18.0573 13.6853 18.2523 13.4902L22.3084 9.43408C22.6232 9.11927 22.6232 8.60403 22.3084 8.28922C21.9936 7.97442 21.4784 7.97442 21.1635 8.28922L17.8082 11.6446L16.9256 10.1158C16.7033 9.73072 16.2048 9.59718 15.8197 9.8195C15.4341 10.0421 15.3008 10.5397 15.5234 10.9253L15.5234 10.9253ZM27.489 9.33647C27.6026 8.19133 28.5085 7.28549 29.6536 7.1718C28.5085 7.05812 27.6026 6.15228 27.489 5.00714C27.3753 6.15228 26.4694 7.05812 25.3243 7.1718C26.4694 7.28549 27.3753 8.19133 27.489 9.33647ZM10.1415 14.3226C10.2344 13.3857 10.9756 12.6445 11.9125 12.5515C10.9756 12.4585 10.2344 11.7174 10.1415 10.7804C10.0485 11.7174 9.3073 12.4585 8.37036 12.5515C9.3073 12.6445 10.0485 13.3857 10.1415 14.3226Z" fill="#1D1D1D"/>
</g>
<defs>
<filter id="filter0_ii_5332_4296" x="0" y="-1.42081" width="37.0002" height="39.8416" filterUnits="userSpaceOnUse" color-interpolation-filters="sRGB">
<feFlood flood-opacity="0" result="BackgroundImageFix"/>
<feBlend mode="normal" in="SourceGraphic" in2="BackgroundImageFix" result="shape"/>
<feColorMatrix in="SourceAlpha" type="matrix" values="0 0 0 0 0 0 0 0 0 0 0 0 0 0 0 0 0 0 127 0" result="hardAlpha"/>
<feOffset dy="1.42081"/>
<feGaussianBlur stdDeviation="0.710405"/>
<feComposite in2="hardAlpha" operator="arithmetic" k2="-1" k3="1"/>
<feColorMatrix type="matrix" values="0 0 0 0 0.956667 0 0 0 0 0.956667 0 0 0 0 0.956667 0 0 0 1 0"/>
<feBlend mode="normal" in2="shape" result="effect1_innerShadow_5332_4296"/>
<feColorMatrix in="SourceAlpha" type="matrix" values="0 0 0 0 0 0 0 0 0 0 0 0 0 0 0 0 0 0 127 0" result="hardAlpha"/>
<feOffset dy="-1.42081"/>
<feGaussianBlur stdDeviation="0.710405"/>
<feComposite in2="hardAlpha" operator="arithmetic" k2="-1" k3="1"/>
<feColorMatrix type="matrix" values="0 0 0 0 0.955 0 0 0 0 0.955 0 0 0 0 0.955 0 0 0 1 0"/>
<feBlend mode="normal" in2="effect1_innerShadow_5332_4296" result="effect2_innerShadow_5332_4296"/>
</filter>
<filter id="filter1_d_5332_4296" x="2" y="3.54103" width="33.96" height="33.5278" filterUnits="userSpaceOnUse" color-interpolation-filters="sRGB">
<feFlood flood-opacity="0" result="BackgroundImageFix"/>
<feColorMatrix in="SourceAlpha" type="matrix" values="0 0 0 0 0 0 0 0 0 0 0 0 0 0 0 0 0 0 127 0" result="hardAlpha"/>
<feOffset dy="1.54103"/>
<feGaussianBlur stdDeviation="1.5"/>
<feComposite in2="hardAlpha" operator="out"/>
<feColorMatrix type="matrix" values="0 0 0 0 0 0 0 0 0 0 0 0 0 0 0 0 0 0 0.15 0"/>
<feBlend mode="normal" in2="BackgroundImageFix" result="effect1_dropShadow_5332_4296"/>
<feBlend mode="normal" in="SourceGraphic" in2="effect1_dropShadow_5332_4296" result="shape"/>
</filter>
<linearGradient id="paint0_linear_5332_4296" x1="-4.85628" y1="1.3956e-07" x2="18.5001" y2="37.0002" gradientUnits="userSpaceOnUse">
<stop stop-color="#F7F6F6"/>
<stop offset="1" stop-color="white"/>
</linearGradient>
</defs>
</svg>
